<?xml version="1.0" encoding="UTF-8" standalone="no"?>
<!-- Created with Inkscape (http://www.inkscape.org/) -->

<svg
   xmlns:dc="http://purl.org/dc/elements/1.1/"
   xmlns:cc="http://creativecommons.org/ns#"
   xmlns:rdf="http://www.w3.org/1999/02/22-rdf-syntax-ns#"
   xmlns:svg="http://www.w3.org/2000/svg"
   xmlns="http://www.w3.org/2000/svg"
   xmlns:xlink="http://www.w3.org/1999/xlink"
   xmlns:sodipodi="http://sodipodi.sourceforge.net/DTD/sodipodi-0.dtd"
   xmlns:inkscape="http://www.inkscape.org/namespaces/inkscape"
   width="512"
   height="512"
   viewBox="0 0 479.99999 480.00001"
   id="svg2"
   version="1.1"
   inkscape:version="0.92.3 (3ce5693, 2018-03-11)"
   inkscape:export-filename="/home/jestrella/Projects/Webapps/Ant/app/_/img/ant-logo.png"
   inkscape:export-xdpi="75.682861"
   inkscape:export-ydpi="75.682861"
   sodipodi:docname="ant-logo.svg">
  <defs
     id="defs4">
    <linearGradient
       id="linearGradient4460">
      <stop
         id="stop7"
         style="stop-color:#1b487e;stop-opacity:1;"
         offset="0" />
      <stop
         id="stop9"
         style="stop-color:#3ec3dc;stop-opacity:1;"
         offset="1" />
    </linearGradient>
    <linearGradient
       x2="0"
       gradientUnits="userSpaceOnUse"
       y2="268.32999"
       y1="279.09601"
       id="linearGradient3001"
       xlink:href="#linearGradient4460"
       gradientTransform="matrix(51.83674,0,0,51.83674,-7139.6891,-13986.678)" />
  </defs>
  <sodipodi:namedview
     id="base"
     pagecolor="#ffffff"
     bordercolor="#666666"
     borderopacity="1.0"
     inkscape:pageopacity="0.0"
     inkscape:pageshadow="2"
     inkscape:zoom="0.04375"
     inkscape:cx="-7376.8247"
     inkscape:cy="4539.5808"
     inkscape:document-units="px"
     inkscape:current-layer="g4300"
     showgrid="false"
     inkscape:window-width="1861"
     inkscape:window-height="1016"
     inkscape:window-x="1979"
     inkscape:window-y="27"
     inkscape:window-maximized="1"
     units="px" />
  <metadata
     id="metadata7">
    <rdf:RDF>
      <cc:Work
         rdf:about="">
        <dc:format>image/svg+xml</dc:format>
        <dc:type
           rdf:resource="http://purl.org/dc/dcmitype/StillImage" />
        <dc:title></dc:title>
      </cc:Work>
    </rdf:RDF>
  </metadata>
  <g
     inkscape:label="Capa 1"
     inkscape:groupmode="layer"
     id="layer1"
     transform="translate(0,-572.36215)">
    <g
       id="g4300">
      <g
         id="g4694"
         transform="translate(1333.8616,459.44191)">
        <rect
           ry="135.26785"
           style="fill:#1976d2;fill-opacity:1;stroke:#9e9e9e;stroke-width:4.6875;stroke-miterlimit:4;stroke-dasharray:none;stroke-opacity:1"
           y="110.57649"
           x="-1331.5178"
           height="480"
           width="480"
           id="rect3855-3" />
        <g
           id="g3347"
           transform="matrix(0.87434552,0,0,0.87434552,-690.28156,84.106594)"
           style="fill:#ffffff;fill-opacity:1;stroke:#9e9e9e;stroke-width:1.7852639;stroke-miterlimit:4;stroke-dasharray:none;stroke-opacity:1">
          <path
             style="fill:#ffffff;fill-opacity:1;stroke:#9e9e9e;stroke-width:1.7852639;stroke-miterlimit:4;stroke-dasharray:none;stroke-opacity:1"
             d="m -477.05782,553.50352 c -3.60679,-1.2296 -9.21575,-3.80549 -12.46434,-5.72418 -7.30863,-4.31665 -20.54565,-17.23555 -26.91504,-26.2682 -10.83155,-15.3606 -19.80624,-37.08063 -24.69352,-59.76186 -1.89856,-8.81095 -2.2502,-13.45156 -2.23223,-29.45848 0.0184,-16.35406 0.32336,-20.10047 2.19016,-26.90224 6.95448,-25.33888 23.58968,-41.08136 49.45618,-46.80213 2.86914,-0.63455 5.39266,-1.28671 5.60784,-1.44924 0.21518,-0.16254 -1.42279,-2.66947 -3.63993,-5.57096 -5.17983,-6.77865 -9.64261,-15.74326 -11.87576,-23.85539 -2.7086,-9.8393 -2.48128,-29.04307 0.46621,-39.38493 2.72739,-9.56961 7.09325,-18.04362 12.40539,-24.07853 2.65048,-3.01111 3.48885,-4.58825 2.58704,-4.8667 -0.7338,-0.22658 -3.56054,-0.93085 -6.28164,-1.56504 -12.0172,-2.80079 -22.40781,-10.85557 -26.59019,-20.61267 -6.05405,-14.12353 -4.35649,-37.32384 4.01435,-54.86335 4.24102,-8.88625 12.65833,-19.26781 19.89506,-24.53773 3.37053,-2.45448 6.12824,-4.61406 6.12824,-4.79905 0,-0.185 -6.21334,-7.39589 -13.80741,-16.0242 -7.59408,-8.62831 -14.08831,-16.15757 -14.43161,-16.73169 C -518.42805,118.25853 -535,61.305868 -535,59.207983 c 0,-4.697993 7.06486,-7.221643 10.26614,-3.667185 0.976,1.083673 3.83821,13.037929 7.51714,31.395942 l 5.94101,29.64594 13.82208,16.94186 13.82207,16.94187 6.06578,-1.98692 c 9.27065,-3.03672 23.8984,-2.86686 33.19823,0.3855 l 7.13245,2.49437 14.28479,-17.44156 14.28479,-17.44156 5.91008,-29.592721 c 3.67058,-18.379162 6.50791,-30.255848 7.48775,-31.342721 3.28787,-3.647016 10.26769,-1.001904 10.26769,3.891099 0,1.090989 -3.825,14.88566 -8.5,30.654824 -4.675,15.769169 -8.5,28.879549 -8.5,29.134189 0,0.25465 -6.81148,8.23121 -15.13663,17.72571 l -15.13663,17.26272 3.38663,2.49067 c 19.78116,14.5479 31.7122,43.49852 28.11048,68.20993 -2.57879,17.69303 -11.69829,28.23726 -28.00992,32.38588 -3.69266,0.93917 -7.35075,1.89915 -8.12909,2.13328 -1.03094,0.31011 -0.57335,1.29938 1.68539,3.64369 4.77068,4.95142 10.02794,14.38926 12.93336,23.21801 2.30575,7.00653 2.63763,9.67649 2.67251,21.5 0.0561,19.02978 -3.18546,29.87464 -12.8073,42.84719 -2.58927,3.49095 -4.56399,6.45208 -4.38828,6.58028 0.17571,0.1282 3.01948,0.80575 6.31948,1.50566 27.40428,5.81234 44.9562,24.81773 50.10932,54.25884 2.05516,11.74165 1.33871,34.80443 -1.52207,48.99629 -6.11853,30.35304 -20.78387,59.03039 -38.70835,75.69225 -13.62529,12.66552 -25.8482,18.06786 -40.8789,18.06786 -6.69401,0 -10.68025,-0.57282 -15.55782,-2.23565 z M -592.6,460.3908 l -3.4,-3.4 0.0354,-41.35 c 0.0283,-33.0542 0.30981,-41.84559 1.40304,-43.82022 0.85604,-1.54622 14.77643,-10.75275 37.21456,-24.61262 28.83063,-17.80846 35.97099,-21.82675 36.48062,-20.52978 0.34851,0.88694 1.65486,5.36851 2.90299,9.95905 1.90798,7.01741 2.04593,8.47841 0.86634,9.17527 -0.77164,0.45587 -14.09885,8.62497 -29.61601,18.15357 l -28.21298,17.32473 -0.037,37.20295 c -0.0397,39.99148 -0.1934,41.29234 -5.18201,43.87205 -4.71686,2.43918 -8.6672,1.81277 -12.45497,-1.975 z m 239.52308,0.47692 -2.92308,-2.92307 -0.0145,-38.32693 -0.0145,-38.32692 -25.47481,-17.82817 c -14.01114,-9.80549 -25.7267,-18.23574 -26.03458,-18.73389 -0.30787,-0.49815 0.64191,-4.62547 2.11063,-9.17183 1.46871,-4.54636 2.83761,-8.85713 3.042,-9.57949 0.46699,-1.6505 -2.49695,-3.55813 33.78779,21.74633 25.03401,17.45837 31.16599,22.18234 32.29195,24.87714 1.12698,2.69724 1.33467,11.08488 1.09794,44.34115 l -0.29195,41.01467 -3.26578,2.91704 c -4.56084,4.07382 -10.23368,4.07143 -14.31114,-0.006 z m -255.9376,-161.64848 c -15.11701,-9.66435 -28.72298,-18.89645 -30.23548,-20.51577 -7.40817,-7.93138 1.93327,-19.85094 11.56574,-14.75773 1.20134,0.63521 13.0791,8.05295 26.39502,16.48385 l 24.21076,15.32892 27.07371,0.26615 27.07371,0.26614 0.21553,10.25054 0.21553,10.25053 -29.51452,-5.3e-4 -29.51452,-5.4e-4 z m 208.42025,7.07166 0.0943,-10.4999 30.18127,-10e-5 30.18127,-1e-4 18.81873,-12.17848 c 30.29508,-19.60539 32.40357,-20.82152 36.09964,-20.82152 4.45739,0 9.21906,4.58449 9.21906,8.87602 0,6.33327 -1.48383,7.60416 -31.09991,26.63685 l -28.76714,18.48713 h -32.41075 -32.41074 l 0.0943,-10.4999 z m -2.77425,-26.20195 C -403.71583,279.74163 -404,278.81993 -404,278.04072 c 0,-0.77921 -1.36952,-4.83696 -3.04338,-9.01723 l -3.04338,-7.60048 2.29338,-2.17508 c 1.26136,-1.1963 13.43088,-11.93883 27.04338,-23.87229 l 24.75,-21.6972 v -35.8671 -35.86709 l 2.52703,-3.00321 c 3.19781,-3.80038 7.17917,-4.71767 11.90537,-2.74293 6.41718,2.68127 6.5678,3.7321 6.56605,45.81057 -10e-4,33.57636 -0.17535,37.60779 -1.75,40.55857 -1.51523,2.83942 -59.89173,54.76405 -64.36697,57.25302 -0.89018,0.49509 -1.90268,0.616 -2.25,0.26868 z M -556,253.7278 c -18.425,-14.30261 -34.9625,-27.55789 -36.75,-29.45618 l -3.25,-3.45145 0.004,-38.76468 c 0.004,-36.45466 0.11808,-38.95222 1.9226,-41.9116 3.82002,-6.26475 12.40802,-6.55736 17.10755,-0.58287 1.87138,2.37939 1.96585,4.21937 1.96585,38.29245 v 35.79296 l 30.55387,23.71061 c 23.2654,18.05457 30.40142,24.09505 29.9148,25.32219 -0.35149,0.88636 -1.79706,5.09907 -3.21237,9.36157 -1.41532,4.2625 -3.06448,7.73689 -3.6648,7.72087 -0.60033,-0.016 -16.1665,-11.73126 -34.5915,-26.03387 z"
             id="path3361"
             inkscape:connector-curvature="0" />
          <path
             style="fill:#ffffff;fill-opacity:1;stroke:#9e9e9e;stroke-width:1.7852639;stroke-miterlimit:4;stroke-dasharray:none;stroke-opacity:1"
             d="m -474.43221,554.3132 c -30.27611,-8.64382 -56.45332,-44.7578 -66.2664,-91.42085 -3.45641,-16.43589 -3.89989,-41.84742 -0.9529,-54.60155 4.50352,-19.49051 15.29901,-34.47217 30.51499,-42.34778 8.0127,-4.14728 19.67637,-8.15222 23.74186,-8.15222 1.31706,0 2.39466,-0.28718 2.39466,-0.63817 0,-0.35099 -1.8359,-2.62989 -4.07979,-5.06421 -4.70871,-5.10836 -10.09936,-15.9276 -12.60445,-25.29762 -2.36125,-8.83202 -2.31119,-28.05761 0.0963,-37 2.4403,-9.06412 6.95134,-18.14063 12.24758,-24.64299 2.47645,-3.04042 4.35362,-5.63818 4.17149,-5.7728 -0.18214,-0.13462 -3.03116,-0.81736 -6.33116,-1.5172 -21.18047,-4.49176 -31.00833,-18.0835 -30.77918,-42.56701 0.19514,-20.84971 6.77835,-37.06218 20.73737,-51.06984 4.42299,-4.43841 9.14728,-8.75533 10.49841,-9.59315 l 2.45659,-1.52332 -14.48743,-16.54839 -14.48743,-16.54838 -8.90801,-30.226671 c -8.35181,-28.339388 -8.81622,-30.39099 -7.43797,-32.858459 1.84532,-3.303642 6.75517,-4.074027 9.11577,-1.430316 1.01397,1.135583 3.68043,12.303706 7.23396,30.298524 3.09542,15.675002 6.02597,29.400002 6.51233,30.500002 1.10064,2.48929 27.00169,34.01697 27.89464,33.95435 0.35802,-0.0251 3.35095,-0.8996 6.65095,-1.94332 9.1661,-2.89904 22.94991,-2.60911 32.16813,0.67662 l 7.16813,2.55499 13.83187,-16.91913 c 7.60753,-9.30552 14.1526,-17.68512 14.5446,-18.62132 0.39203,-0.93621 3.24637,-14.52719 6.343,-30.202192 3.55426,-17.991399 6.2224,-29.163157 7.23618,-30.298524 2.36418,-2.647718 7.27056,-1.873128 9.1212,1.440001 1.38528,2.48001 0.93256,4.487154 -7.40628,32.835414 l -8.88176,30.193941 -14.96311,17.04981 -14.96311,17.04981 4.40059,3.57393 c 14.91348,12.11193 23.14451,26.63098 26.56076,46.85158 1.94003,11.48296 0.92039,24.54781 -2.54137,32.56299 -4.40161,10.19125 -15.49269,18.52881 -27.94731,21.00898 -3.11932,0.62118 -5.83944,1.24546 -6.04472,1.3873 -0.20527,0.14184 1.51213,2.39976 3.81645,5.0176 9.39739,10.676 14.43393,25.94637 14.45525,43.82717 0.0213,17.81026 -4.04497,30.67509 -13.67014,43.25 -4.74822,6.20337 -4.76429,6.25 -2.15362,6.25 4.20781,0 20.31387,5.78751 26.40753,9.48921 12.6331,7.67421 22.70973,21.85798 27.26298,38.37514 3.12617,11.34037 3.05924,41.1535 -0.12603,56.13565 -6.61719,31.12441 -19.28961,56.3798 -37.13104,74 -14.12212,13.94702 -24.92539,19.1208 -40.98815,19.62962 -6.04448,0.19147 -11.29404,-0.21127 -14.43221,-1.10722 z m -117.80201,-93.43961 -3.26578,-2.9172 -0.28124,-41.96894 -0.28125,-41.96894 2.54988,-3.03035 c 2.46739,-2.93233 71.18733,-45.85597 72.04363,-44.99968 0.91848,0.91849 5.47001,17.99164 4.99939,18.75312 -0.27572,0.44612 -13.55008,8.85219 -29.49857,18.68016 l -28.99727,17.86904 -0.0173,37.85 -0.0173,37.85 -3.4,3.4 c -4.49139,4.49139 -9.1641,4.65446 -13.83422,0.48279 z M -350.5,462.63012 c -5.56084,-3.05809 -5.4537,-2.21018 -5.47776,-43.34958 L -356,381.27028 -381.56136,363.33576 c -14.05876,-9.86399 -25.75827,-18.25311 -25.99892,-18.64249 -0.24065,-0.38939 0.98065,-5.0011 2.714,-10.24825 l 3.15155,-9.54027 4.59737,3.1361 c 32.03588,21.85336 60.08052,42.12154 60.61567,43.80763 0.52657,1.65907 0.9695,64.27523 0.57842,81.76924 -0.17472,7.8158 -7.99386,12.64353 -14.59673,9.0124 z m -259,-163.833 c -15.4,-9.8833 -29.0125,-19.12798 -30.25,-20.54374 -5.2264,-5.97925 -0.22897,-15.46258 8.14832,-15.46258 1.26732,0 14.0033,7.425 28.30219,16.5 l 25.99798,16.5 h 27.08434 27.08434 l 0.31642,10.08761 c 0.17402,5.54819 0.12891,10.27319 -0.10026,10.5 -0.22916,0.22682 -13.50416,0.40698 -29.5,0.40036 l -29.08333,-0.012 -28,-17.96962 z m 209.11763,7.74368 0.24729,-10.25 30.02667,-0.2646 30.02667,-0.2646 25.67971,-16.4854 c 28.59397,-18.35624 30.10675,-18.93452 35.47895,-13.56232 4.14376,4.14376 4.02682,8.96297 -0.32692,13.47282 -2.67863,2.77468 -47.99053,32.58068 -55.43426,36.46446 -1.50138,0.78335 -12.15132,1.13964 -34.06483,1.13964 h -31.88058 z m -5.73204,-35.03194 c -1.85089,-5.06993 -3.36983,-9.52975 -3.37542,-9.9107 -0.006,-0.38096 11.91483,-11.19186 26.48983,-24.02422 l 26.5,-23.33157 0.5,-36.62205 c 0.55664,-40.77028 0.3192,-39.45964 7.58284,-41.85686 2.67037,-0.8813 4.00288,-0.78855 6.63835,0.46206 6.19914,2.94168 6.09234,2.13313 6.03656,45.70262 -0.0279,21.81874 -0.43609,40.35892 -0.907,41.20039 -0.92276,1.64887 -61.78039,55.1442 -64.47533,56.67536 -1.37037,0.7786 -2.15116,-0.51937 -4.98983,-8.29503 z M -556.4869,253.22391 c -18.6928,-14.54881 -35.1178,-27.58284 -36.5,-28.96451 l -2.5131,-2.51214 -0.28358,-38.96296 c -0.31732,-43.59871 -0.28784,-43.81223 6.43575,-46.62153 4.72292,-1.97336 9.77872,-0.35297 12.42149,3.98112 1.79575,2.94501 1.9191,5.40714 1.9226,38.37597 l 0.004,35.22906 30.52397,23.69902 c 16.78819,13.03446 30.31512,24.18138 30.05985,24.77094 -0.25527,0.58956 -1.6691,4.78442 -3.14183,9.32192 -1.47274,4.5375 -3.18717,8.22423 -3.80985,8.19274 -0.62268,-0.0315 -16.42625,-11.96083 -35.11904,-26.50963 z"
             id="path3359"
             inkscape:connector-curvature="0" />
          <path
             style="fill:#ffffff;fill-opacity:1;stroke:#9e9e9e;stroke-width:1.7852639;stroke-miterlimit:4;stroke-dasharray:none;stroke-opacity:1"
             d="m -474,554.27524 c -29.43244,-8.08416 -56.01743,-43.84571 -66.08526,-88.89644 -6.71829,-30.0625 -4.11731,-60.0286 6.80967,-78.45477 7.92287,-13.36033 23.08966,-23.86287 40.06607,-27.74453 4.24024,-0.96953 7.87747,-1.88407 8.08275,-2.0323 0.20527,-0.14824 -1.4089,-2.29411 -3.58705,-4.76862 -14.82468,-16.84173 -19.09116,-45.62418 -10.32391,-69.64702 2.70264,-7.40539 9.04316,-18.04053 12.43258,-20.85349 2.52896,-2.09885 1.98747,-2.6071 -4.14485,-3.8905 -18.66619,-3.90652 -29.00924,-15.21452 -31.11266,-34.01532 -1.63177,-14.58511 0.71955,-27.73788 7.49792,-41.94155 4.66159,-9.76809 13.24384,-20.11211 21.34404,-25.72555 2.21138,-1.53249 4.00771,-3.06265 3.99183,-3.40035 -0.0159,-0.3377 -6.43551,-7.88241 -14.26585,-16.76603 l -14.23697,-16.15203 -8.85139,-30.19297 c -7.37321,-25.15079 -8.67048,-30.589998 -7.76816,-32.570385 1.39624,-3.064403 5.46374,-4.113074 8.42574,-2.172298 2.00075,1.31094 2.93586,4.90749 8.15373,31.360236 l 5.89381,29.879477 12.99131,16 c 7.14522,8.8 13.48689,16.54806 14.09261,17.21792 0.86326,0.95467 2.00244,0.90744 5.27045,-0.21848 13.12854,-4.52315 26.90292,-3.87298 40.40206,1.90703 1.18257,0.50635 5.21537,-3.78645 16.07875,-17.11531 l 14.50027,-17.79116 5.92125,-29.889078 c 5.21981,-26.348324 6.18694,-30.063355 8.16397,-31.360237 2.94475,-1.931675 7.01555,-0.875357 8.40853,2.1819 0.90235,1.980444 -0.39738,7.428229 -7.78401,32.626444 l -8.86723,30.249031 -14.76861,16.76656 -14.76861,16.76657 9.33846,9.3294 c 15.28484,15.27003 21.77574,30.72483 21.97794,52.32941 0.23051,24.629 -9.54262,37.95531 -31.27918,42.65123 -3.025,0.65352 -5.64902,1.29836 -5.83116,1.43298 -0.18213,0.13462 1.69504,2.73238 4.17149,5.7728 9.63158,11.82499 14.03293,25.51822 14.02794,43.64299 -0.005,17.72718 -5.28608,33.53117 -14.57124,43.60437 -2.2492,2.44009 -3.91116,4.56816 -3.69324,4.72904 0.21791,0.16088 3.86549,1.08576 8.10573,2.05529 19.38121,4.43152 35.16684,16.54239 42.71449,32.7709 5.98854,12.8762 7.563,21.43188 7.51568,40.8404 -0.0316,12.94813 -0.52371,18.93977 -2.28619,27.83379 -8.89613,44.89259 -33.58739,81.44614 -62.13842,91.99129 -8.35557,3.08608 -22.06197,3.84382 -30.01508,1.65936 z M -592.23422,460.87283 -595.5,457.95486 v -42.5628 -42.5628 l 3,-2.87488 c 3.32001,-3.18155 70.37868,-44.61823 71.07715,-43.91976 0.50556,0.50555 4.59011,15.56152 4.78958,17.65474 0.078,0.81842 -11.98602,8.89677 -29.08334,19.47492 l -29.21662,18.07636 -0.28338,38.35799 -0.28339,38.35798 -3.26578,2.91709 c -4.41342,3.94221 -9.0557,3.94191 -13.46844,-8.7e-4 z m 241.34429,1.52246 c -4.94801,-2.74247 -5.03675,-3.50613 -5.07463,-43.67314 L -356,381.1535 -382.06415,362.86051 c -17.49204,-12.2767 -25.89054,-18.74539 -25.5363,-19.66854 0.29032,-0.75656 1.72497,-5.21513 3.18811,-9.90793 1.84136,-5.90587 3.00688,-8.26607 3.7863,-7.66728 0.61932,0.47581 14.62604,10.21465 31.12604,21.64188 16.5,11.42723 30.7875,21.6716 31.75,22.76526 1.60796,1.82707 1.75,5.43431 1.75,44.44343 0,27.20583 -0.36983,43.14599 -1.02964,44.37886 -1.27223,2.37717 -6.09085,4.95663 -9.1707,4.90917 -1.26481,-0.0195 -3.37513,-0.63152 -4.68959,-1.36007 z m -231.0351,-146.32511 c -2.06703,-0.81625 -55.25907,-35.14336 -57.26829,-36.95769 -5.96155,-5.3833 -0.96539,-16.32169 7.455,-16.32169 1.33766,0 13.60381,7.15009 28.29966,16.49621 l 25.93866,16.49621 27.25,0.004 27.25,0.004 v 10.5 10.5 l -28.75,-0.079 c -15.8125,-0.0434 -29.39126,-0.33217 -30.17503,-0.64167 z m 181.64063,-9.52884 0.21559,-10.25054 30.10418,-0.26477 30.10419,-0.26476 25.57848,-16.48524 c 14.06816,-9.06688 26.60746,-16.48523 27.86512,-16.48523 5.81609,0 10.41684,4.51728 10.41684,10.22783 0,5.04475 -2.10291,6.63511 -44.88928,33.94826 l -15.38928,9.82391 -32.11072,5.4e-4 -32.11072,5.3e-4 z m -138.37806,-39.72646 c -42.42135,-32.69221 -54.88112,-42.70093 -56.0501,-45.02408 -0.94257,-1.87322 -1.26165,-11.84708 -1.2727,-39.78212 -0.0157,-39.64817 0.31308,-42.71741 4.83486,-45.13739 2.55196,-1.36577 8.68985,-1.39734 11.19322,-0.0576 4.23157,2.26467 4.43634,3.97728 4.95718,41.46066 l 0.5,35.98358 30,23.25781 c 16.5,12.7918 29.98905,23.59918 29.97566,24.01642 -0.0612,1.90698 -5.9667,18.25861 -6.59424,18.25861 -0.38849,0 -8.28324,-5.83917 -17.54388,-12.97592 z m 135.19132,11.79983 c -1.11669,-3.17866 -5.30457,-14.4583 -5.87508,-15.82391 -0.4467,-1.06926 7.10631,-8.24833 26.30218,-25 l 26.92882,-23.5 0.0576,-36.32692 0.0576,-36.32693 2.92308,-2.92308 c 4.01607,-4.01607 10.21957,-4.11865 14.2722,-0.23598 L -336,141.16498 v 40.67655 40.67654 l -2.687,2.68701 c -6.22499,6.22498 -61.57273,54.11326 -62.88491,54.40963 -0.78878,0.17815 -1.64343,-0.27185 -1.89923,-1 z"
             id="path3357"
             inkscape:connector-curvature="0" />
          <path
             style="fill:#ffffff;fill-opacity:1;stroke:#9e9e9e;stroke-width:1.7852639;stroke-miterlimit:4;stroke-dasharray:none;stroke-opacity:1"
             d="m -473.72549,554.31512 c -35.61781,-10.02513 -64.36205,-55.93304 -69.41587,-110.86522 -1.87289,-20.35725 0.77171,-38.16838 7.81882,-52.6591 7.45134,-15.32193 23.03553,-26.96542 42.32254,-31.62065 4.125,-0.99564 7.66795,-1.91875 7.87323,-2.05136 0.20527,-0.13261 -1.51213,-2.38298 -3.81645,-5.00082 -9.28277,-10.54579 -14.30935,-25.98913 -14.26509,-43.82717 0.0436,-17.56822 4.75971,-31.73276 14.57965,-43.789 l 4.39894,-5.40071 -5.93156,-1.10309 c -16.00881,-2.97715 -26.62371,-12.20629 -30.41367,-26.44321 -2.10255,-7.89817 -1.82565,-24.84871 0.56119,-34.35403 4.00171,-15.93635 14.81907,-32.36381 26.68913,-40.53062 2.43878,-1.67792 4.29701,-3.45219 4.12939,-3.94282 -0.16762,-0.49063 -6.57652,-8.04999 -14.24199,-16.7986 l -13.93724,-15.90654 -8.79761,-29.865694 c -4.83869,-16.426128 -8.80444,-30.428188 -8.81277,-31.115688 -0.0234,-1.934528 3.7561,-5.25 5.98485,-5.25 4.54008,0 5.46067,2.65143 11.54117,33.239964 l 5.87973,29.578518 13.36788,16.34076 c 7.35233,8.98742 13.678,16.66364 14.05705,17.05826 0.37904,0.39463 3.6063,-0.19249 7.17167,-1.3047 11.33921,-3.53723 26.0291,-2.56821 38.08384,2.51221 1.2079,0.50906 5.139,-3.65351 16,-16.94212 L -408.5,116.6567 l 6.04736,-30.048194 c 6.27915,-31.199924 6.85314,-32.817708 11.64377,-32.817708 2.07387,0 5.81625,3.391169 5.79372,5.25 -0.008,0.6875 -3.97638,14.697392 -8.81789,31.133093 l -8.80273,29.883089 -14.43211,16.46157 c -7.93767,9.05385 -14.56126,17.00902 -14.71909,17.67814 -0.15784,0.66912 0.90777,1.85598 2.36801,2.63748 4.59081,2.45693 15.94582,15.52649 19.66558,22.63499 7.15437,13.67208 10.21742,29.67264 8.5678,44.75601 -2.05014,18.74563 -12.60794,29.99736 -31.82563,33.91742 l -6.09396,1.24306 2.20451,1.95257 c 3.80604,3.37109 10.54134,14.65568 13.25443,22.20699 8.53362,23.75152 3.46182,54.34866 -11.60003,69.98061 -1.71437,1.77926 -2.92279,3.37922 -2.68539,3.55547 0.23741,0.17624 3.80665,1.10164 7.93165,2.05642 17.05799,3.94831 32.42721,14.5516 40.27559,27.78632 22.35434,37.69611 7.3385,112.94459 -29.80615,149.36677 -7.73129,7.58092 -14.85175,12.26767 -24.69065,16.25162 -7.87489,3.18869 -21.55358,4.01054 -29.50428,1.7727 z M -590,462.56148 c -1.375,-0.71418 -3.29467,-2.86724 -4.26594,-4.78459 -1.61582,-3.18976 -1.74333,-6.94819 -1.5,-44.21425 l 0.26594,-40.72815 2.5,-2.46335 c 2.49187,-2.45534 70.96801,-44.99333 71.46564,-44.3951 0.96708,1.16256 5.253,18.45017 4.71048,19.00007 -0.37187,0.37692 -13.50112,8.60684 -29.17612,18.28871 l -28.5,17.6034 -0.5,38.43977 -0.5,38.43976 -2.55375,2.55255 c -3.03831,3.03687 -8.47249,4.06545 -11.94625,2.26118 z m 237.4,-2.17068 -3.4,-3.4 v -37.98248 -37.98248 l -26.05456,-18.25416 c -20.08401,-14.07111 -25.90848,-18.62386 -25.4171,-19.86751 0.3506,-0.88736 1.77914,-5.1283 3.17453,-9.42432 1.70982,-5.26405 2.95506,-7.65056 3.81896,-7.31905 2.40101,0.92136 61.89763,42.82167 63.15881,44.47941 1.62212,2.13215 1.89498,85.20652 0.28972,88.20598 -1.31534,2.45773 -6.10375,4.94461 -9.5207,4.94461 -1.68001,0 -3.8939,-1.24424 -6.04966,-3.4 z M -586.05883,313.48229 c -9.34679,-5.68333 -48.27983,-30.80588 -51.64943,-33.32812 -8.11394,-6.07353 -2.38853,-19.36137 7.29513,-16.93092 1.44413,0.36245 13.90998,7.83843 27.7019,16.61328 l 25.0762,15.95427 H -550.31751 -523 v 10.5 10.5 h -28.80883 -28.80883 z M -400,306.2908 v -10.5 h 30.13097 30.13098 l 24.80755,-15.96552 c 13.64415,-8.78103 25.96895,-16.25701 27.38843,-16.61328 8.89512,-2.23253 15.12452,10.03817 8.27676,16.30358 -1.22908,1.12456 -14.56425,9.97153 -29.6337,19.65993 l -27.39902,17.61529 H -368.14901 -400 Z M -557.54284,252.11083 C -584.74776,231.02318 -593.57963,223.6478 -594.62622,221.14294 -595.70604,218.55859 -596,210.05175 -596,181.38802 c 0,-20.30469 0.41605,-37.56133 0.93874,-38.93609 1.58503,-4.16895 5.0589,-6.66113 9.285,-6.66113 4.82701,0 8.31343,2.23356 9.70144,6.21521 0.68233,1.95733 1.09267,15.71836 1.1237,37.68401 l 0.0489,34.60078 30.46231,23.49962 c 22.68146,17.49721 30.28503,23.88286 29.76824,25 -0.38174,0.82521 -1.84928,4.9864 -3.26119,9.24709 -1.41192,4.26069 -2.86711,7.74819 -3.23375,7.75 -0.36664,0.002 -16.73594,-12.4527 -36.37622,-27.67668 z m 151.31561,18.42997 -3.66048,-9.25 2.4162,-2 c 1.32891,-1.1 13.43898,-11.675 26.91126,-23.5 l 24.49507,-21.5 0.0326,-36.32692 0.0326,-36.32693 2.92308,-2.92308 c 4.11619,-4.11619 10.03765,-4.11619 14.15384,0 L -336,141.63695 v 39.64267 c 0,25.38907 -0.37183,40.33744 -1.03416,41.57501 -0.56879,1.06279 -13.73129,13.04082 -29.25,26.61784 -35.36031,30.93605 -34.63632,30.31833 -35.53401,30.31833 -0.41171,0 -2.39579,-4.1625 -4.40906,-9.25 z"
             id="path3355"
             inkscape:connector-curvature="0" />
          <path
             style="fill:#ffffff;fill-opacity:1;stroke:#9e9e9e;stroke-width:1.7852639;stroke-miterlimit:4;stroke-dasharray:none;stroke-opacity:1"
             d="m -473.21836,554.23786 c -20.57071,-4.98702 -41.15947,-24.97771 -54.3044,-52.72691 -14.85189,-31.35265 -19.93561,-69.52743 -12.92181,-97.03261 5.85139,-22.94668 22.02012,-38.56135 46.44457,-44.85307 4.675,-1.20427 8.66795,-2.31514 8.87323,-2.46859 0.20527,-0.15345 -1.41283,-2.30806 -3.59579,-4.78803 C -497.85165,341.99746 -503,326.10327 -503,308.2908 c 0,-17.97107 4.44212,-31.49379 14.33484,-43.63814 l 4.50249,-5.52728 -6.5141,-1.29479 c -13.93182,-2.76921 -24.09158,-10.59546 -28.42032,-21.8927 -2.76256,-7.20976 -3.69636,-23.4427 -1.92867,-33.52735 3.23925,-18.47989 12.82024,-34.38534 27.15499,-45.08014 l 5.62924,-4.19982 -13.96772,-15.91989 c -7.68224,-8.75594 -14.3287,-16.59489 -14.76991,-17.41989 -0.44122,-0.825 -4.66993,-14.65022 -9.39715,-30.722718 -9.2038,-31.292833 -9.47606,-33.52328 -4.2522,-34.834386 2.90835,-0.72995 6.29292,0.867846 7.00309,3.306041 0.28052,0.963083 3.05945,14.60101 6.1754,30.306503 l 5.66537,28.55544 13.86132,16.94456 c 7.62372,9.31951 14.43777,16.87664 15.14232,16.79362 0.70456,-0.083 4.20316,-0.92463 7.77467,-1.87025 8.73105,-2.31168 24.19993,-1.64582 31.98699,1.3769 6.53522,2.53678 4.02002,4.52243 21.79816,-17.20887 l 12.9693,-15.85316 5.65859,-28.64684 c 3.11223,-15.755763 6.0786,-29.646928 6.59194,-30.869254 1.78887,-4.259536 9.05669,-3.829344 10.46875,0.619659 0.52981,1.66929 -15.34949,58.092495 -17.48057,62.112925 -0.44026,0.83059 -7.35463,8.93059 -15.36525,18 -14.30933,16.20063 -14.5258,16.51496 -12.34317,17.92294 5.18501,3.34474 16.62555,16.04929 20.17158,22.40024 6.21132,11.1245 8.70726,20.32961 9.29761,34.28998 0.54529,12.89481 -0.47074,19.7962 -3.92666,26.67173 -4.75116,9.4524 -14.58178,16.24772 -27.10679,18.7373 l -6.47673,1.28737 4.3951,5.39599 c 9.78276,12.01059 14.47799,26.11985 14.57039,43.78428 0.0917,17.52221 -5.07029,33.38747 -14.25968,43.82717 -2.30432,2.61784 -4.02172,4.89178 -3.81645,5.05319 0.20528,0.16141 3.29823,1.00099 6.87323,1.86574 15.34419,3.71155 26.04549,9.64662 34.93905,19.37759 31.63555,34.61433 16.03584,124.53003 -28.11998,162.08174 -15.11405,12.85355 -32.54837,17.73912 -49.03743,13.74163 z m -117.0065,-91.95644 c -1.49867,-0.84048 -3.18617,-2.39012 -3.75,-3.44364 C -594.62838,457.61666 -595,441.69347 -595,414.91231 v -42.00998 l 2.25,-2.49728 c 2.03726,-2.26116 70.71473,-45.02352 71.28301,-44.38471 0.13234,0.14875 1.16085,3.64546 2.28559,7.77046 1.12473,4.125 2.32832,8.2341 2.67464,9.13133 0.49636,1.28598 -5.62864,5.4985 -28.93179,19.89811 L -575,381.08701 v 36.38402 c 0,37.68506 -0.30447,40.84133 -4.25587,44.11816 -2.46864,2.04721 -7.9375,2.39234 -10.96899,0.69223 z m 240.61298,0.52931 c -1.16154,-0.46931 -3.07404,-2.07647 -4.25,-3.57147 C -355.96042,456.57141 -356,455.82106 -356,418.70975 v -37.81132 l -26.02721,-18.22219 c -14.31496,-10.0222 -25.81689,-18.70892 -25.55984,-19.30381 0.25705,-0.5949 1.67233,-4.79413 3.14506,-9.33163 1.47274,-4.5375 2.89912,-8.25 3.16973,-8.25 1.33729,0 61.65189,42.66716 63.32956,44.79997 1.85339,2.35621 1.9427,4.3959 1.9427,44.37007 0,46.18417 0.0812,45.56019 -6.21521,47.75514 -3.57346,1.24571 -4.51813,1.25781 -7.39667,0.0947 z M -583.03856,315.01084 c -1.90379,-0.97897 -15.29812,-9.37307 -29.76516,-18.65354 -18.80411,-12.06266 -26.73417,-17.70598 -27.81343,-19.79304 -3.10762,-6.00947 1.52055,-13.25825 8.42352,-13.1932 3.03804,0.0286 8.33066,2.99759 29.81893,16.72728 l 26.1253,16.69246 H -549.6247 -523 v 10 10 h -28.28856 c -25.15972,0 -28.67141,-0.19687 -31.75,-1.77996 z M -400,306.83013 V 296.7908 h 29.06574 c 19.65168,0 29.74792,-0.36509 31.17196,-1.12722 1.15843,-0.61996 12.89182,-8.06881 26.07422,-16.55299 13.1824,-8.48417 25.19269,-15.67071 26.68954,-15.97008 8.68121,-1.73624 14.3458,10.39328 7.66393,16.4107 -1.19096,1.07253 -14.31539,9.77771 -29.16539,19.34483 l -27,17.39476 -32.25,0.28933 -32.25,0.28932 z m -156.0983,-53.62964 c -18.92094,-14.62468 -35.4142,-27.69977 -36.6517,-29.05577 l -2.25,-2.46545 v -40.35534 -40.35535 l 3.07673,-2.58889 c 5.20301,-4.37805 12.56807,-2.96454 15.37508,2.95079 1.30364,2.74722 1.55284,8.76726 1.57762,38.11145 l 0.0294,34.84887 30.28509,23.39067 30.28508,23.39066 -3.06452,9.32383 c -1.68548,5.1281 -3.33375,9.3398 -3.66281,9.35933 -0.32907,0.0195 -16.07907,-11.93013 -35,-26.5548 z m 151.2931,20.84031 c -1.09385,-3.1625 -2.65054,-7.325 -3.45931,-9.25 l -1.47049,-3.5 26.85409,-23.5 26.8541,-23.5 0.0134,-35.29966 c 0.0143,-37.56007 0.26078,-39.65681 4.95802,-42.1707 3.80998,-2.03904 9.01164,-1.22724 12.13231,1.89343 L -336,141.63695 v 39.85442 c 0,33.68163 -0.23068,40.18376 -1.4894,41.98084 -1.87853,2.68197 -63.25712,56.31859 -64.44769,56.31859 -0.48361,0 -1.77427,-2.5875 -2.86811,-5.75 z"
             id="path3353"
             inkscape:connector-curvature="0" />
          <path
             style="fill:#ffffff;fill-opacity:1;stroke:#9e9e9e;stroke-width:1.7852639;stroke-miterlimit:4;stroke-dasharray:none;stroke-opacity:1"
             d="m -469,555.16437 c -12.02416,-2.32264 -23.02296,-8.43049 -33.78252,-18.76009 -24.67361,-23.68766 -40.38082,-64.17768 -40.34688,-104.0061 0.0177,-20.72278 3.20798,-34.38741 10.88154,-46.60738 8.74457,-13.92552 23.42799,-23.3772 41.99041,-27.02913 l 6.2071,-1.22117 -3.85105,-4.37502 c -2.11807,-2.40626 -5.49434,-7.50223 -7.50282,-11.32437 -12.54149,-23.86649 -9.40296,-58.70158 6.92504,-76.86224 2.46355,-2.74006 4.47918,-5.21376 4.47918,-5.4971 0,-0.28335 -1.88747,-0.83406 -4.19438,-1.22381 -22.69136,-3.83368 -33.83487,-17.66146 -33.78826,-41.92726 0.047,-24.45182 11.74095,-48.4646 29.07014,-59.69354 4.26413,-2.76306 4.74103,-3.3948 3.59772,-4.76583 -2.39109,-2.8673 -22.99152,-26.52713 -25.41933,-29.19439 -1.73188,-1.90268 -4.81329,-10.85987 -11.32541,-32.921164 -8.24937,-27.94661 -8.83122,-30.482791 -7.46998,-32.560296 1.85454,-2.830389 4.86764,-3.829266 7.424,-2.461142 2.4743,1.324201 1.95181,-0.676772 8.68608,33.264958 l 5.69596,28.708494 13.98847,17.125 c 11.96432,14.64699 14.2957,17.03101 16.11173,16.4755 14.38649,-4.40067 27.20893,-4.62912 38.09743,-0.67873 l 5.97417,2.16745 2.19599,-2.25311 c 1.20779,-1.2392 7.79497,-9.13564 14.63816,-17.54764 l 12.44218,-15.29453 5.69536,-28.705466 c 6.73359,-33.938343 6.21119,-31.937732 8.68547,-33.261926 2.55912,-1.3696 5.56994,-0.368514 7.43012,2.470486 1.36857,2.0887 0.82989,4.481381 -7.01844,31.174157 -4.67543,15.901499 -8.9179,29.811819 -9.4277,30.911819 -0.5098,1.1 -7.48351,9.425 -15.49712,18.5 l -14.57021,16.5 2.73893,1.99031 c 13.90796,10.10658 23.08031,24.30465 27.39989,42.41286 2.77134,11.61777 2.24398,28.70832 -1.15828,37.53772 -4.13466,10.73005 -13.04842,17.61636 -27.50269,21.24714 -3.85,0.96709 -7.13912,1.83452 -7.30915,1.92764 -0.17003,0.0931 1.53603,2.13018 3.79125,4.52681 5.21524,5.54226 11.64701,18.61084 13.52731,27.48587 4.61994,21.80605 -0.73835,47.09521 -12.90913,60.92635 l -4.27404,4.85711 8.94626,2.26147 c 17.72687,4.48107 32.69453,14.76002 40.02177,27.48472 15.29616,26.56376 13.03268,74.47438 -5.37414,113.75351 -8.73499,18.63999 -25.60433,39.1308 -38.37763,46.61645 -10.49419,6.15001 -26.28059,9.63467 -35.5425,7.84561 z m -120.67126,-92.83133 c -1.7442,-0.75871 -3.6567,-2.28652 -4.25,-3.39512 C -594.64374,457.58796 -595,443.06649 -595,414.96733 c 0,-38.47878 0.145,-42.13149 1.75,-44.08558 0.9625,-1.17183 17.48515,-11.80221 36.71701,-23.62306 l 34.967,-21.49245 2.31359,8.26228 c 1.27247,4.54425 2.41232,8.81032 2.53299,9.48015 0.12068,0.66983 -13.05559,9.44692 -29.28059,19.50466 l -29.5,18.28679 -0.5,38.49534 c -0.275,21.17244 -0.89243,39.10376 -1.37208,39.84737 -0.8354,1.29518 -6.71611,4.19039 -8.3458,4.10883 -0.43017,-0.0215 -2.20919,-0.65991 -3.95338,-1.41862 z m 240.17126,0.5124 c -1.1,-0.45022 -2.9,-1.81834 -4,-3.04026 -1.9074,-2.11881 -2.02315,-4.00642 -2.5,-40.76952 l -0.5,-38.54784 -25.5,-17.91331 c -14.025,-9.85232 -25.48179,-18.22165 -25.45952,-18.59851 0.0873,-1.47844 5.72153,-18.1852 6.13278,-18.1852 1.20722,0 60.2113,41.58616 62.57674,44.10417 l 2.75,2.92738 v 41.43717 c 0,28.85676 -0.34567,42.19583 -1.13856,43.93604 -1.11557,2.44841 -6.34349,5.65728 -9.01257,5.53185 -0.74188,-0.0349 -2.24887,-0.43175 -3.34887,-0.88197 z M -610.98916,297.37139 c -21.63867,-13.96764 -28.77564,-19.07382 -29.68054,-21.23509 -3.06472,-7.31978 4.01123,-15.06714 11.2483,-12.31562 1.49457,0.56824 14.05396,8.21897 27.90975,17.00164 l 25.19235,15.96848 H -549.65965 -523 v 9.5 9.5 l -29.75,-0.0149 -29.75,-0.0149 -28.48916,-18.38959 z M -400,306.2908 v -9.5 h 29.51214 29.51214 l 24.20986,-15.58912 c 13.31542,-8.57402 25.4928,-16.25256 27.06085,-17.06342 7.44023,-3.8475 15.65438,4.05127 12.37503,11.89987 -1.19814,2.86755 -5.78812,6.21466 -29.58417,21.57341 l -28.166,18.17926 H -367.54007 -400 Z m -156.5,-53.57621 c -19.25,-14.89076 -35.7875,-27.99014 -36.75,-29.10974 -1.60352,-1.86523 -1.75,-5.38091 -1.75,-42.00176 v -39.96614 l 2.92308,-2.92308 c 3.83133,-3.83133 8.69547,-3.95637 13.00019,-0.33418 L -576,140.96858 v 36.23098 36.23097 l 30.75,23.93014 30.75,23.93013 -3,9.22545 c -1.65,5.074 -3.225,9.23603 -3.5,9.24895 -0.275,0.0129 -16.25,-12.15985 -35.5,-27.05061 z m 150.56293,18.10031 c -1.76592,-4.93674 -2.96393,-9.37526 -2.66226,-9.86339 0.30168,-0.48812 12.25994,-11.15989 26.57392,-23.71504 L -356,214.40893 v -35.26201 c 0,-37.93337 0.17519,-39.36111 5.14503,-41.93112 4.48343,-2.31847 8.63681,-1.797 11.93189,1.49807 L -336,141.63695 v 40.09161 40.09161 l -3.25,3.43373 c -4.35148,4.59747 -61.80182,54.5369 -62.73928,54.5369 -0.40537,0 -2.18187,-4.03915 -3.94779,-8.9759 z"
             id="path3351"
             inkscape:connector-curvature="0" />
          <path
             style="fill:#ffffff;fill-opacity:1;stroke:#9e9e9e;stroke-width:1.7852639;stroke-miterlimit:4;stroke-dasharray:none;stroke-opacity:1"
             d="m -471.5,554.35753 c -11.44246,-2.66204 -20.85359,-7.97918 -30.83843,-17.42321 -18.30256,-17.31123 -33.50434,-48.38325 -38.76775,-79.24018 -2.82315,-16.55086 -2.31359,-42.24361 1.06874,-53.88701 5.31302,-18.28962 15.54712,-30.84437 31.35221,-38.4615 5.05187,-2.43471 12.61437,-5.20858 16.80553,-6.16415 l 7.62031,-1.7374 -4.54724,-5.57664 c -10.05679,-12.33346 -14.76514,-28.17742 -13.95705,-46.96654 0.74365,-17.29083 6.08074,-31.47975 15.5505,-41.34174 1.97077,-2.05241 3.38747,-3.89772 3.1482,-4.1007 -0.23926,-0.20298 -3.52186,-1.12866 -7.29467,-2.05707 -17.35566,-4.27088 -26.52443,-13.36715 -29.68946,-29.4547 -1.49691,-7.60861 -0.74881,-23.11872 1.52686,-31.65589 4.53686,-17.02008 15.298,-32.19871 29.45682,-41.54898 l 2.34557,-1.54898 -14.65917,-16.61257 -14.65916,-16.61258 -8.48091,-28.829798 C -530.18359,75.281501 -534,61.077073 -534,59.572497 c 0,-1.814482 0.84178,-3.287151 2.5,-4.373656 2.28953,-1.500155 2.70409,-1.504339 4.92416,-0.04969 2.99537,1.962642 2.35449,-0.39888 9.09738,33.522582 l 5.64154,28.380927 13.7665,16.61907 c 9.50919,11.47959 14.35469,16.57961 15.66846,16.49148 1.04608,-0.0702 4.82696,-0.91281 8.40196,-1.87254 8.63171,-2.31723 22.00769,-1.6264 30.72593,1.5869 3.42426,1.26209 6.39475,2.09637 6.60109,1.85397 0.20635,-0.24241 6.70545,-8.14414 14.44245,-17.55941 l 14.06729,-17.11866 5.64162,-28.381332 c 6.74298,-33.921918 6.10209,-31.560344 9.09746,-33.522987 2.22007,-1.454645 2.63463,-1.450461 4.92416,0.04969 1.68712,1.105443 2.5,2.553792 2.5,4.454373 0,1.548971 -3.81883,15.751836 -8.4863,31.561923 l -8.4863,28.745613 -15.11085,17.15474 -15.11085,17.15474 3.34715,2.44808 c 11.3901,8.33064 21.09761,22.44393 25.84337,37.57249 2.66796,8.50493 3.80027,26.55886 2.14872,34.25979 -3.3925,15.81865 -14.27642,26.00019 -31.39494,29.36889 -3.1625,0.62234 -5.75,1.34436 -5.75,1.6045 0,0.26013 2.02551,2.72582 4.50114,5.47931 9.10678,10.12893 14.51066,26.24841 14.4815,43.19747 -0.0305,17.7354 -4.65593,31.97245 -14.19041,43.67822 l -4.53284,5.5651 7.62031,1.7374 c 4.19116,0.95557 11.74335,3.72443 16.78264,6.15301 15.90644,7.6658 25.9841,20.01533 31.39506,38.47264 3.3569,11.45074 3.8785,37.21561 1.08579,53.63389 -10.4417,61.38647 -51.51086,105.78783 -89.64319,96.91651 z m -117.90531,-92.09417 c -5.69625,-2.97058 -5.5285,-1.54987 -5.56289,-47.11178 -0.0292,-38.70357 0.11088,-42.30831 1.7182,-44.21321 0.9625,-1.1407 17.5,-11.73223 36.75,-23.53672 l 35,-21.46272 1.60727,6.29711 c 0.88399,3.46341 2.07255,7.63185 2.64125,9.2632 l 1.03398,2.96609 -29.8808,18.41274 -29.8808,18.41273 -0.0105,37.81574 c -0.007,25.15671 -0.37215,38.49159 -1.09094,39.83466 -0.94811,1.77155 -6.45689,4.86062 -8.63739,4.84344 -0.43017,-0.003 -2.08951,-0.68796 -3.68743,-1.52128 z m 239.72002,0.0395 c -6.19759,-2.64833 -6.30896,-3.43022 -6.36855,-44.71243 l -0.0538,-37.29963 -25.74296,-17.95167 -25.74296,-17.95166 3.00084,-9.04834 c 1.65046,-4.97658 3.07694,-9.17875 3.16996,-9.33815 0.35701,-0.61183 61.03992,42.04728 63.1728,44.40946 l 2.25,2.49189 v 41.92846 41.92846 l -2.75,2.91937 c -3.38579,3.59433 -6.76653,4.40564 -10.93529,2.62427 z M -609.3272,298.32374 c -14.75496,-9.53115 -27.91746,-18.35361 -29.25,-19.60547 -2.64063,-2.48074 -3.25035,-7.51266 -1.34231,-11.07787 1.52074,-2.84152 7.22738,-5.06325 10.15057,-3.95185 1.2797,0.48654 13.7405,8.13359 27.69066,16.99343 l 25.36394,16.10882 H -549.85717 -523 v 9.5 9.5 l -29.75,-0.0688 -29.75,-0.0688 -26.8272,-17.32937 z M -400,306.2908 v -9.5 h 29.65796 29.65796 l 25.9954,-16.7 c 28.73609,-18.46068 30.74959,-19.25564 35.31827,-13.94424 2.6471,3.07744 3.21404,9.12361 1.12041,11.9487 -0.6875,0.92769 -13.83908,9.7887 -29.22573,19.69113 l -27.97573,18.00441 H -367.72573 -400 Z m -155,-52.65841 c -18.425,-14.28981 -34.9625,-27.38827 -36.75,-29.10769 l -3.25,-3.12623 v -39.88076 -39.88076 l 2.92308,-2.92308 c 4.03431,-4.03431 9.11953,-4.03431 13.15384,0 L -576,141.63695 v 35.99963 35.99963 l 30.54127,23.74375 c 16.7977,13.05906 30.39742,24.23134 30.22161,24.82729 -2.20751,7.48279 -5.15249,16.22227 -5.64265,16.74508 C -521.2209,279.31617 -536.575,267.9222 -555,253.63239 Z m 149.14266,16.93327 -3.35734,-9.19385 2.87438,-2.5405 c 1.58091,-1.39728 13.53832,-11.92046 26.57202,-23.38484 l 23.69763,-20.84434 0.28533,-36.48864 0.28532,-36.48865 3.26578,-2.91702 c 1.79617,-1.60436 4.40602,-2.91702 5.79966,-2.91702 3.7026,0 7.87157,2.46896 9.23987,5.47206 1.72924,3.79526 1.66524,78.09505 -0.0701,81.33249 -1.1194,2.08839 -63.52198,57.21667 -64.72482,57.17981 -0.28074,-0.009 -2.02124,-4.15288 -3.86778,-9.2095 z"
             id="path3349"
             inkscape:connector-curvature="0" />
        </g>
      </g>
    </g>
  </g>
</svg>
